<?xml version="1.0" encoding="utf-8"?>
<!-- Generator: Adobe Illustrator 20.1.0, SVG Export Plug-In . SVG Version: 6.00 Build 0)  -->
<svg version="1.1" id="Layer_1" xmlns="http://www.w3.org/2000/svg"  x="0px" y="0px"
	 viewBox="0 0 164.6 39.3" style="enable-background:new 0 0 164.6 39.3;" xml:space="preserve">
<style type="text/css">
	.st0{fill-rule:evenodd;clip-rule:evenodd;fill:#1D1D1B;}
	.st1{fill-rule:evenodd;clip-rule:evenodd;fill:#EE7203;}
</style>
<path class="st0" d="M157.5,0H7.1C3.2,0,0,3.2,0,7.1v25.1c0,3.9,3.2,7.1,7.1,7.1h150.3c3.9,0,7.2-3.1,7.2-7.1V7.1
	C164.6,3.2,161.4,0,157.5,0z M162.4,32.2c0,2.7-2.2,4.9-5,4.9H7.1c-2.7,0-5-2.2-5-4.9V7.1c0-2.7,2.2-4.9,5-4.9h150.3
	c2.7,0,5,2.2,5,4.9V32.2z"/>
<path class="st1" d="M7.1,37.2c-2.7,0-5-2.2-5-4.9V7.1c0-2.7,2.2-4.9,5-4.9h12.6v35H7.1L7.1,37.2z"/>
<polygon class="st1" points="117.9,24.9 123,24.9 123,30.1 117.9,30.1 117.9,24.9 "/>
<path class="st0" d="M24.6,12.2H29V14h0.1c1.2-1.6,2.6-2.3,4.5-2.3c2.1,0,3.7,1,4.2,2.8h0.1c0.7-1.9,2.4-2.8,4.6-2.8
	c3,0,4.5,1.9,4.5,5.3v13h-4.6V17.6c0-1.5-0.5-2.3-1.8-2.3c-1.5,0-2.4,1-2.4,3.1v11.8h-4.6V17.6c0-1.5-0.5-2.3-1.8-2.3
	c-1.5,0-2.4,1-2.4,3.1v11.8h-4.6V12.2L24.6,12.2z"/>
<path class="st0" d="M54.4,21.1c0-3.7,0.2-6.3,2.5-6.3c1.9,0,2.5,1.8,2.5,6.3c0,4.5-0.6,6.3-2.5,6.3C54.6,27.4,54.4,24.8,54.4,21.1
	L54.4,21.1z M56.9,11.7c-5.3,0-7.1,3.3-7.1,9.4c0,6.2,1.5,9.5,7.1,9.4c5.3,0,7.1-3.3,7.1-9.4C64,14.9,62.5,11.6,56.9,11.7L56.9,11.7
	z"/>
<path class="st0" d="M74,11.9c0.4-0.2,1-0.2,1.5-0.2c3.8,0,5.5,2.7,5.5,9.4c0,6.7-1.7,9.4-5.5,9.4c-0.6,0-1-0.1-1.5-0.2
	c-1-0.3-1.9-1-2.6-2.2h-0.1v1.9H67V6.3h4.6v7.5h0.1C72.3,12.9,73.1,12.2,74,11.9L74,11.9z M71.6,21.1C71.6,25,72,27,74,27
	c2,0,2.4-2,2.4-5.9c0-3.9-0.4-5.9-2.4-5.9C72,15.2,71.6,17.2,71.6,21.1L71.6,21.1z"/>
<path class="st0" d="M84.5,12.2h4.6v17.9h-4.6V12.2L84.5,12.2z M84.5,6h4.6V10h-4.6V6L84.5,6z"/>
<polygon class="st0" points="93.3,6.3 97.9,6.3 97.9,30.1 93.3,30.1 93.3,6.3 "/>
<path class="st0" d="M107.9,14.7c-1.9,0-2.4,1.9-2.4,3.6V19h4.7C110.2,16.3,109.8,14.7,107.9,14.7L107.9,14.7z M107.9,11.6
	c0.1,0,0.1,0,0.2,0c5.4,0,6.6,3.6,6.6,9.1v1h-6.8h-2.4v1.4c0,2.1,0.6,4.2,2.3,4.2c0,0,0.1,0,0.1,0c1.5,0,2.1-1.2,2.3-3.4h4.2
	c-0.2,4.2-2.2,6.5-6.5,6.5h0c-6.7,0-7-5.1-7-9.6C100.9,16.1,101.8,11.7,107.9,11.6L107.9,11.6z"/>
<path class="st0" d="M150.5,14.8c-1.9,0-2.4,1.9-2.4,3.6v0.7h4.7C152.8,16.4,152.4,14.8,150.5,14.8L150.5,14.8z M150.5,11.7
	c0.1,0,0.1,0,0.2,0c5.4,0,6.6,3.6,6.6,9.1v1h-6.8h-2.4v1.4c0,2.1,0.6,4.2,2.3,4.2c0,0,0.1,0,0.1,0c1.5,0,2.1-1.2,2.3-3.4h4.2
	c-0.2,4.2-2.2,6.5-6.5,6.5h0c-6.7,0-7-5.1-7-9.6C143.5,16.2,144.4,11.8,150.5,11.7L150.5,11.7z"/>
<path class="st0" d="M131,21.1c0-3.9,0.4-5.9,2.4-5.9c0,0,0,0,0,0c2,0,2.4,2,2.4,5.9c0,3.9-0.4,5.9-2.4,5.9c0,0,0,0,0,0
	C131.4,27,131,25,131,21.1L131,21.1z M133.4,11.9c-0.5-0.2-1-0.2-1.5-0.2c-3.8,0-5.5,2.7-5.5,9.4c0,6.7,1.8,9.4,5.5,9.4
	c0.6,0,1.1-0.1,1.5-0.2c1-0.3,1.9-1,2.6-2.2h0.1v1.9h4.4V6.3h-4.6v7.5h-0.1C135.1,12.9,134.4,12.2,133.4,11.9L133.4,11.9z"/>
</svg>
